<svg width="133" height="129" viewBox="0 0 133 129" fill="none" xmlns="http://www.w3.org/2000/svg">
<g clip-path="url(#clip0_1_26)">
<path d="M66.29 0C30.01 0 0.5 29.51 0.5 65.79C0.5 95.4 20.17 120.47 47.12 128.69C47.91 128.83 48.63 128.28 48.73 127.58C48.81 126.97 48.41 126.34 47.76 126.14C21.95 118.19 3.13 94.16 3.13 65.79C3.13 30.96 31.46 2.63 66.29 2.63C101.12 2.63 129.45 30.96 129.45 65.79C129.45 77.78 126.08 88.99 120.26 98.55C113.14 108.77 102.94 117.39 91.18 121.73C69.64 130.13 44.23 120.26 31.37 101.77C35.85 106.22 42.02 110.82 50.17 113.84C56.85 116.32 63.17 117.09 68.46 117.09C71.41 117.09 74.03 116.85 76.23 116.53L77.04 116.41L77.07 115.59C77.25 111.06 76.81 103.35 72.96 95.63C83.46 90.15 90.64 79.17 90.64 66.51C90.64 61.4 89.47 56.58 87.38 52.27C87.4 52.27 87.41 52.26 87.43 52.25C87.41 52.21 87.4 52.18 87.38 52.14C89.7 50.09 91.72 47.78 93.41 45.25C96.14 41.15 97.93 36.59 98.71 31.72L98.86 30.82L97.98 30.58C92.46 29.06 86.81 28.28 81.25 28.2C82.73 23.48 83.19 18.52 82.61 13.43L82.51 12.56H81.64C72.32 12.43 63.24 14.49 55.36 18.38C39.07 26.42 27.01 42.64 23.57 60.31C23.52 60.25 23.48 60.21 23.43 60.15C22.04 58.33 18.57 59.52 17.89 60.89C16.91 63.3 16.45 65.94 16.03 68.51C14.41 78.85 17.48 89.8 22.96 98.39C42.19 128.82 80.76 138.41 109.2 114.38C114.27 110.15 118.79 105.37 122.58 99.89C122.67 99.76 122.72 99.61 122.76 99.47C128.67 89.61 132.08 78.09 132.08 65.78C132.08 29.51 102.56 0 66.29 0ZM56.23 20.16C63.59 16.53 72.04 14.6 80.74 14.54C81.17 19.26 80.64 23.86 79.18 28.22C76 28.28 72.85 28.57 69.79 29.11C50.68 32.52 33.62 45.31 25.3 61.85C28.31 44.32 40.13 28.1 56.23 20.15M24.53 87.2C24.3 86.31 24.09 85.41 23.91 84.51C31.47 90.98 40.53 95.53 49.96 98.26C41.16 95.25 32.88 90.63 26.01 84.48C34.71 89.09 44.31 91.8 53.99 92.81C44.28 91.34 34.81 88.12 26.45 83.13C26.35 83.08 25.7 82.77 25.46 82.01C25.24 81.32 25.52 80.75 25.58 80.63C33.63 76.49 42.6 74 51.78 73.44C43.51 73.34 35.16 74.81 27.32 77.76C36.24 69.21 47.29 62.79 59.32 59.32C47.21 62.16 35.76 68.01 26.23 76.22C30.27 68.66 35.83 61.86 42.53 56.33C35.52 61.3 29.43 67.67 24.74 75.02C24.55 72.9 24.49 70.78 24.57 68.67C31.18 49.85 49.41 34.78 70.14 31.07C78.62 29.55 87.73 29.97 96.55 32.27C95.75 36.52 94.12 40.5 91.72 44.1C90 46.69 87.89 49.04 85.46 51.09L84.84 51.61L84.96 51.84C84.96 51.84 84.95 51.85 84.94 51.86C84.91 51.9 84.87 51.92 84.83 51.95C87.16 56.27 88.48 61.21 88.48 66.47C88.48 78.32 81.76 88.6 71.92 93.71C70.9 91.94 69.68 90.18 68.24 88.47C67.31 87.37 66.31 86.34 65.25 85.36C65.18 85.29 65.11 85.22 65.04 85.17C64.86 84.95 64.58 84.8 64.27 84.8C63.96 84.8 63.7 84.93 63.52 85.15C63.5 85.16 63.48 85.18 63.47 85.2C63.43 85.25 63.41 85.3 63.38 85.36C63.31 85.5 63.27 85.64 63.27 85.81C63.27 86.16 63.45 86.46 63.71 86.64C64.74 87.57 65.76 88.6 66.74 89.76C74.01 98.35 75.06 108.79 75.1 114.66C69.17 115.43 60.39 115.5 50.83 111.96C38.08 107.24 30.34 98.46 26.48 92.89C25.71 91.04 25.04 89.14 24.51 87.18" fill="black"/>
</g>
<defs>
<clipPath id="clip0_1_26">
<rect width="131.58" height="128.71" fill="none" transform="translate(0.5)"/>
</clipPath>
</defs>
</svg>
