<svg width="265" height="74" viewBox="0 0 265 74" fill="none" xmlns="http://www.w3.org/2000/svg">
<g clip-path="url(#clip0_1_279)">
<mask id="mask0_1_279" style="mask-type:luminance" maskUnits="userSpaceOnUse" x="0" y="0" width="266" height="97">
<path d="M265.333 0.666672H0V96.6667H265.333V0.666672Z" fill="white"/>
</mask>
<g mask="url(#mask0_1_279)">
<path d="M49.7257 60.7392C51.7778 64.2809 53.4184 66.7757 54.6424 68.2184C55.8611 69.6663 56.7674 70.3851 57.3507 70.3851V71.2601H45.2882V70.3851C45.5382 70.3851 45.7257 70.2965 45.8507 70.1142C45.9861 69.9215 45.9757 69.5309 45.809 68.9476C45.6424 68.3642 45.3351 67.5622 44.8924 66.5309C44.4445 65.5049 43.7361 64.1507 42.7674 62.4684L25.0174 31.0101L14.1007 41.8226V62.9684C14.1007 64.5101 14.1945 65.7809 14.3924 66.7809C14.5851 67.7705 14.7934 68.5257 15.0174 69.0517C15.2517 69.5674 15.4965 69.9215 15.7465 70.1142C16.007 70.2965 16.2361 70.3851 16.434 70.3851V71.2601H5.03821V70.3851C5.16321 70.3851 5.35071 70.2965 5.60071 70.1142C5.86112 69.9215 6.10592 69.5674 6.32987 69.0517C6.56425 68.5257 6.77258 67.7705 6.95487 66.7809C7.14758 65.7809 7.24654 64.5101 7.24654 62.9684V11.8226C7.24654 10.2132 7.14758 8.92674 6.95487 7.9684C6.77258 6.99965 6.56425 6.25486 6.32987 5.73924C6.10592 5.22882 5.86112 4.87465 5.60071 4.67674C5.35071 4.48403 5.16321 4.38507 5.03821 4.38507V3.51007H16.434V4.38507C16.2361 4.38507 16.007 4.48403 15.7465 4.67674C15.4965 4.87465 15.2517 5.22882 15.0174 5.73924C14.7934 6.25486 14.5851 6.99965 14.3924 7.9684C14.1945 8.92674 14.1007 10.2132 14.1007 11.8226V40.6767L40.1632 14.7184C43.382 11.4267 45.3611 8.88507 46.1007 7.0934C46.8351 5.29132 45.7257 4.38507 42.7674 4.38507V3.51007H58.2049V4.38507C56.8559 4.38507 55.4132 4.73924 53.8715 5.44757C52.3299 6.1559 50.7674 7.06215 49.184 8.1559C47.6111 9.23924 46.0695 10.4424 44.559 11.7601C43.0434 13.083 41.7101 14.3226 40.559 15.4892L30.1215 25.9059L49.7257 60.7392Z" fill="black"/>
<path d="M63.5161 46.1767C62.2921 41.609 62.0161 37.0726 62.6828 32.5726C63.3599 28.0622 64.7921 23.9059 66.9744 20.1142C69.1671 16.3226 72.0265 13.0309 75.5578 10.2392C79.0994 7.43716 83.1515 5.42153 87.7244 4.19757C92.2921 2.97882 96.8286 2.68716 101.329 3.32257C105.839 3.9632 109.995 5.37987 113.787 7.57257C117.579 9.75487 120.87 12.6351 123.662 16.2184C126.464 19.7913 128.48 23.8538 129.704 28.4059C130.922 32.9788 131.209 37.4997 130.558 41.9684C129.917 46.4424 128.5 50.583 126.308 54.3851C124.125 58.1767 121.25 61.4892 117.683 64.3226C114.11 67.1455 110.042 69.1663 105.474 70.3851C100.917 71.6038 96.4015 71.8955 91.9328 71.2601C87.4588 70.6247 83.3182 69.1924 79.5161 66.9684C75.7244 64.7497 72.4119 61.8747 69.5786 58.3434C66.7557 54.8017 64.7349 50.7497 63.5161 46.1767ZM122.849 30.2392C121.891 26.5205 120.297 22.8851 118.079 19.3434C115.855 15.8017 113.214 12.7809 110.162 10.2809C107.105 7.77049 103.683 5.98403 99.8911 4.92674C96.0994 3.85903 92.1411 3.87466 88.0161 4.96841C83.8338 6.06737 80.3755 8.03091 77.6411 10.8642C74.9015 13.6872 72.8286 16.9476 71.4119 20.6559C69.9953 24.3538 69.2244 28.2913 69.0994 32.4684C68.9744 36.6507 69.3911 40.609 70.3494 44.3434C71.3911 48.0674 73.0005 51.6872 75.1828 55.1976C77.3755 58.6976 80.0161 61.708 83.0994 64.2184C86.1828 66.734 89.6046 68.5413 93.3703 69.6351C97.1307 70.7184 101.105 70.6872 105.287 69.5309C109.412 68.4372 112.834 66.4684 115.558 63.6351C118.292 60.8017 120.37 57.5413 121.787 53.8434C123.204 50.1507 123.985 46.2288 124.141 42.0726C124.308 37.9215 123.875 33.9788 122.849 30.2392Z" fill="black"/>
<path d="M179.786 60.7392C181.838 64.2809 183.478 66.7757 184.702 68.2184C185.921 69.6663 186.827 70.3851 187.411 70.3851V71.2601H175.348V70.3851C175.598 70.3851 175.786 70.2965 175.911 70.1142C176.046 69.9215 176.036 69.5309 175.869 68.9476C175.702 68.3642 175.395 67.5622 174.952 66.5309C174.504 65.5049 173.796 64.1507 172.827 62.4684L155.077 31.0101L144.161 41.8226V62.9684C144.161 64.5101 144.254 65.7809 144.452 66.7809C144.645 67.7705 144.853 68.5257 145.077 69.0517C145.312 69.5674 145.557 69.9215 145.807 70.1142C146.067 70.2965 146.296 70.3851 146.494 70.3851V71.2601H135.098V70.3851C135.223 70.3851 135.411 70.2965 135.661 70.1142C135.921 69.9215 136.166 69.5674 136.39 69.0517C136.624 68.5257 136.833 67.7705 137.015 66.7809C137.208 65.7809 137.307 64.5101 137.307 62.9684V11.8226C137.307 10.2132 137.208 8.92674 137.015 7.9684C136.833 6.99965 136.624 6.25486 136.39 5.73924C136.166 5.22882 135.921 4.87465 135.661 4.67674C135.411 4.48403 135.223 4.38507 135.098 4.38507V3.51007H146.494V4.38507C146.296 4.38507 146.067 4.48403 145.807 4.67674C145.557 4.87465 145.312 5.22882 145.077 5.73924C144.853 6.25486 144.645 6.99965 144.452 7.9684C144.254 8.92674 144.161 10.2132 144.161 11.8226V40.6767L170.223 14.7184C173.442 11.4267 175.421 8.88507 176.161 7.0934C176.895 5.29132 175.786 4.38507 172.827 4.38507V3.51007H188.265V4.38507C186.916 4.38507 185.473 4.73924 183.932 5.44757C182.39 6.1559 180.827 7.06215 179.244 8.1559C177.671 9.23924 176.129 10.4424 174.619 11.7601C173.103 13.083 171.77 14.3226 170.619 15.4892L160.182 25.9059L179.786 60.7392Z" fill="black"/>
<path d="M193.576 46.1767C192.352 41.609 192.076 37.0726 192.743 32.5726C193.42 28.0622 194.852 23.9059 197.034 20.1142C199.227 16.3226 202.087 13.0309 205.618 10.2392C209.159 7.43716 213.212 5.42153 217.784 4.19757C222.352 2.97882 226.889 2.68716 231.389 3.32257C235.899 3.9632 240.055 5.37987 243.847 7.57257C247.639 9.75487 250.93 12.6351 253.722 16.2184C256.524 19.7913 258.54 23.8538 259.764 28.4059C260.982 32.9788 261.269 37.4997 260.618 41.9684C259.977 46.4424 258.56 50.583 256.368 54.3851C254.185 58.1767 251.31 61.4892 247.743 64.3226C244.17 67.1455 240.102 69.1663 235.534 70.3851C230.977 71.6038 226.462 71.8955 221.993 71.2601C217.519 70.6247 213.378 69.1924 209.576 66.9684C205.784 64.7497 202.472 61.8747 199.639 58.3434C196.816 54.8017 194.795 50.7497 193.576 46.1767ZM252.909 30.2392C251.951 26.5205 250.357 22.8851 248.139 19.3434C245.915 15.8017 243.274 12.7809 240.222 10.2809C237.165 7.77049 233.743 5.98403 229.951 4.92674C226.159 3.85903 222.201 3.87466 218.076 4.96841C213.894 6.06737 210.435 8.03091 207.701 10.8642C204.962 13.6872 202.889 16.9476 201.472 20.6559C200.055 24.3538 199.284 28.2913 199.159 32.4684C199.034 36.6507 199.451 40.609 200.409 44.3434C201.451 48.0674 203.06 51.6872 205.243 55.1976C207.435 58.6976 210.076 61.708 213.159 64.2184C216.243 66.734 219.665 68.5413 223.43 69.6351C227.191 70.7184 231.165 70.6872 235.347 69.5309C239.472 68.4372 242.894 66.4684 245.618 63.6351C248.352 60.8017 250.43 57.5413 251.847 53.8434C253.264 50.1507 254.045 46.2288 254.201 42.0726C254.368 37.9215 253.935 33.9788 252.909 30.2392Z" fill="black"/>
</g>
</g>
<defs>
<clipPath id="clip0_1_279">
<rect width="265" height="74" fill="white"/>
</clipPath>
</defs>
</svg>
